# xmcd
#
# Track frame offsets: 
#        150
#        19413
#        44689
#        67537
#        99590
#        117390
#        138848
#        173907
#        189832
#        210707
#        220249
#        245535
#
# Disc length: 3575 seconds
#
# Revision: 2
# Processed by: cddbd v1.5.2PL0 Copyright (c) Steve Scherf et al.
# Submitted via: ExactAudioCopy v1.0b3
#
DISCID=a90df50c
DTITLE=Malik Mezzadri - Saoûle
DYEAR=2008
DGENRE=Jazz
TTITLE0=Grosse grippe
TTITLE1=Marthe et la jungle
TTITLE2=Le bip
TTITLE3=La passacouaille
TTITLE4=Caraïbes
TTITLE5=La Somme
TTITLE6=Paper nut
TTITLE7=Saoûle
TTITLE8=Domine (Deus)
TTITLE9=Agadir
TTITLE10=Soler baby
TTITLE11=Le beep
EXTD=YEAR: 2008
EXTT0=
EXTT1=
EXTT2=
EXTT3=
EXTT4=
EXTT5=
EXTT6=
EXTT7=
EXTT8=
EXTT9=
EXTT10=
EXTT11=
PLAYORDER=
